<mxfile host="app.diagrams.net" modified="2023-09-22T01:37:29.681Z" agent="Mozilla/5.0 (Windows NT 10.0; Win64; x64) AppleWebKit/537.36 (KHTML, like Gecko) Chrome/116.0.0.0 Safari/537.36" etag="0-MnEtlBp1wkqnOJKGkQ" version="21.8.0" type="github">
  <diagram id="prtHgNgQTEPvFCAcTncT" name="Page-1">
    <mxGraphModel dx="683" dy="376" grid="1" gridSize="10" guides="1" tooltips="1" connect="1" arrows="1" fold="1" page="1" pageScale="1" pageWidth="827" pageHeight="1169" math="0" shadow="0">
      <root>
        <mxCell id="0" />
        <mxCell id="1" parent="0" />
        <mxCell id="_8kgMNtP8HcGn5HzTBGs-7" value="音频录制和编辑" style="whiteSpace=wrap;strokeWidth=2;direction=south;html=1;" vertex="1" parent="1">
          <mxGeometry x="500" y="470" width="21" height="129" as="geometry" />
        </mxCell>
        <mxCell id="_8kgMNtP8HcGn5HzTBGs-8" value="音频素材管理" style="whiteSpace=wrap;strokeWidth=2;direction=south;" vertex="1" parent="1">
          <mxGeometry x="630.5" y="470" width="21" height="129" as="geometry" />
        </mxCell>
        <mxCell id="_8kgMNtP8HcGn5HzTBGs-9" value="多设备同步" style="whiteSpace=wrap;strokeWidth=2;direction=south;" vertex="1" parent="1">
          <mxGeometry x="559" y="470" width="21" height="129" as="geometry" />
        </mxCell>
        <mxCell id="_8kgMNtP8HcGn5HzTBGs-10" value="用户社区" style="whiteSpace=wrap;strokeWidth=2;direction=south;" vertex="1" parent="1">
          <mxGeometry x="700" y="470" width="21" height="129" as="geometry" />
        </mxCell>
        <mxCell id="_8kgMNtP8HcGn5HzTBGs-11" value="用户管理" style="whiteSpace=wrap;strokeWidth=2;direction=south;" vertex="1" parent="1">
          <mxGeometry x="729.5" y="470" width="21" height="129" as="geometry" />
        </mxCell>
        <mxCell id="_8kgMNtP8HcGn5HzTBGs-12" value="在线帮助和支持" style="whiteSpace=wrap;strokeWidth=2;direction=south;" vertex="1" parent="1">
          <mxGeometry x="759" y="470" width="21" height="129" as="geometry" />
        </mxCell>
        <mxCell id="_8kgMNtP8HcGn5HzTBGs-13" value="用户配音项目" style="whiteSpace=wrap;strokeWidth=2;" vertex="1" parent="1">
          <mxGeometry x="500" y="394" width="80" height="34" as="geometry" />
        </mxCell>
        <mxCell id="_8kgMNtP8HcGn5HzTBGs-14" value="音频素材" style="whiteSpace=wrap;strokeWidth=2;" vertex="1" parent="1">
          <mxGeometry x="601" y="394" width="80" height="34" as="geometry" />
        </mxCell>
        <mxCell id="_8kgMNtP8HcGn5HzTBGs-15" value="用户信息" style="whiteSpace=wrap;strokeWidth=2;" vertex="1" parent="1">
          <mxGeometry x="700" y="394" width="80" height="34" as="geometry" />
        </mxCell>
        <mxCell id="_8kgMNtP8HcGn5HzTBGs-16" value="配音APP" style="whiteSpace=wrap;strokeWidth=2;" vertex="1" parent="1">
          <mxGeometry x="601" y="310" width="80" height="34" as="geometry" />
        </mxCell>
        <mxCell id="_8kgMNtP8HcGn5HzTBGs-18" value="" style="curved=1;startArrow=none;endArrow=block;exitX=0.5;exitY=1;entryX=0.5;entryY=0;rounded=0;" edge="1" parent="1" source="_8kgMNtP8HcGn5HzTBGs-16" target="_8kgMNtP8HcGn5HzTBGs-14">
          <mxGeometry relative="1" as="geometry">
            <Array as="points" />
          </mxGeometry>
        </mxCell>
        <mxCell id="_8kgMNtP8HcGn5HzTBGs-32" value="" style="endArrow=classic;html=1;rounded=0;entryX=0.5;entryY=0;entryDx=0;entryDy=0;" edge="1" parent="1" target="_8kgMNtP8HcGn5HzTBGs-13">
          <mxGeometry width="50" height="50" relative="1" as="geometry">
            <mxPoint x="640" y="370" as="sourcePoint" />
            <mxPoint x="535" y="320" as="targetPoint" />
            <Array as="points">
              <mxPoint x="540" y="370" />
            </Array>
          </mxGeometry>
        </mxCell>
        <mxCell id="_8kgMNtP8HcGn5HzTBGs-34" value="" style="endArrow=classic;html=1;rounded=0;entryX=0.5;entryY=0;entryDx=0;entryDy=0;" edge="1" parent="1" target="_8kgMNtP8HcGn5HzTBGs-15">
          <mxGeometry width="50" height="50" relative="1" as="geometry">
            <mxPoint x="640" y="370" as="sourcePoint" />
            <mxPoint x="797" y="310" as="targetPoint" />
            <Array as="points">
              <mxPoint x="740" y="370" />
            </Array>
          </mxGeometry>
        </mxCell>
        <mxCell id="_8kgMNtP8HcGn5HzTBGs-36" value="" style="endArrow=classic;html=1;rounded=0;exitX=0.5;exitY=1;exitDx=0;exitDy=0;entryX=0;entryY=0.5;entryDx=0;entryDy=0;" edge="1" parent="1" source="_8kgMNtP8HcGn5HzTBGs-14" target="_8kgMNtP8HcGn5HzTBGs-8">
          <mxGeometry width="50" height="50" relative="1" as="geometry">
            <mxPoint x="660" y="540" as="sourcePoint" />
            <mxPoint x="710" y="490" as="targetPoint" />
          </mxGeometry>
        </mxCell>
        <mxCell id="_8kgMNtP8HcGn5HzTBGs-37" value="" style="endArrow=none;html=1;rounded=0;exitX=0.5;exitY=1;exitDx=0;exitDy=0;strokeColor=default;endFill=0;" edge="1" parent="1" source="_8kgMNtP8HcGn5HzTBGs-13">
          <mxGeometry width="50" height="50" relative="1" as="geometry">
            <mxPoint x="530.93" y="428" as="sourcePoint" />
            <mxPoint x="540" y="450" as="targetPoint" />
          </mxGeometry>
        </mxCell>
        <mxCell id="_8kgMNtP8HcGn5HzTBGs-38" value="" style="endArrow=classic;html=1;rounded=0;entryX=0;entryY=0.5;entryDx=0;entryDy=0;" edge="1" parent="1" target="_8kgMNtP8HcGn5HzTBGs-7">
          <mxGeometry width="50" height="50" relative="1" as="geometry">
            <mxPoint x="540" y="450" as="sourcePoint" />
            <mxPoint x="480" y="410" as="targetPoint" />
            <Array as="points">
              <mxPoint x="510" y="450" />
            </Array>
          </mxGeometry>
        </mxCell>
        <mxCell id="_8kgMNtP8HcGn5HzTBGs-40" value="" style="endArrow=classic;html=1;rounded=0;entryX=0;entryY=0.5;entryDx=0;entryDy=0;" edge="1" parent="1" target="_8kgMNtP8HcGn5HzTBGs-9">
          <mxGeometry width="50" height="50" relative="1" as="geometry">
            <mxPoint x="540" y="450" as="sourcePoint" />
            <mxPoint x="590" y="460" as="targetPoint" />
            <Array as="points">
              <mxPoint x="570" y="450" />
            </Array>
          </mxGeometry>
        </mxCell>
        <mxCell id="_8kgMNtP8HcGn5HzTBGs-41" value="" style="endArrow=classic;html=1;rounded=0;exitX=0.5;exitY=1;exitDx=0;exitDy=0;entryX=0;entryY=0.5;entryDx=0;entryDy=0;" edge="1" parent="1" source="_8kgMNtP8HcGn5HzTBGs-15" target="_8kgMNtP8HcGn5HzTBGs-11">
          <mxGeometry width="50" height="50" relative="1" as="geometry">
            <mxPoint x="620" y="540" as="sourcePoint" />
            <mxPoint x="670" y="490" as="targetPoint" />
          </mxGeometry>
        </mxCell>
        <mxCell id="_8kgMNtP8HcGn5HzTBGs-42" value="" style="endArrow=classic;html=1;rounded=0;entryX=0;entryY=0.5;entryDx=0;entryDy=0;" edge="1" parent="1" target="_8kgMNtP8HcGn5HzTBGs-10">
          <mxGeometry width="50" height="50" relative="1" as="geometry">
            <mxPoint x="740" y="450" as="sourcePoint" />
            <mxPoint x="670" y="480" as="targetPoint" />
            <Array as="points">
              <mxPoint x="710" y="450" />
            </Array>
          </mxGeometry>
        </mxCell>
        <mxCell id="_8kgMNtP8HcGn5HzTBGs-43" value="" style="endArrow=classic;html=1;rounded=0;entryX=0;entryY=0.5;entryDx=0;entryDy=0;" edge="1" parent="1" target="_8kgMNtP8HcGn5HzTBGs-12">
          <mxGeometry width="50" height="50" relative="1" as="geometry">
            <mxPoint x="740" y="450" as="sourcePoint" />
            <mxPoint x="670" y="480" as="targetPoint" />
            <Array as="points">
              <mxPoint x="770" y="450" />
            </Array>
          </mxGeometry>
        </mxCell>
      </root>
    </mxGraphModel>
  </diagram>
</mxfile>
